<svg id="Capa_1" enable-background="new 0 0 511.987 511.987" height="512" viewBox="0 0 511.987 511.987" width="512" xmlns="http://www.w3.org/2000/svg"><g><path d="m493.831 99.232c-14.236-14.236-37.317-14.236-51.553 0-22.031 22.031-25.35 48.431-11.114 62.667s40.636 10.918 62.667-11.114c14.235-14.236 14.235-37.317 0-51.553z" fill="#404656"/><path d="m496.235 101.886c-29.882 10.284-48.589 39.368-57.191 65.568 14.866 7.088 36.353 1.764 54.787-16.67 13.382-13.382 14.181-34.578 2.404-48.898z" fill="#eba188"/><path d="m179.494 386.753c20.162-6.264 31.429-27.687 25.165-47.85-4.244-13.66-8.719-23.301-14.385-35.508-2.542-5.478-5.424-11.687-8.882-19.508-8.539-19.311-31.115-28.042-50.423-19.505-19.31 8.538-28.043 31.113-19.505 50.423 3.74 8.46 6.911 15.291 9.458 20.78 5.154 11.103 7.993 17.218 10.722 26.004 6.273 20.192 27.713 31.42 47.85 25.164z" fill="#eba188"/><path d="m310.099 414.136c19.951-6.907 30.527-28.679 23.621-48.631-9.376-27.085-21.171-55.269-43.794-77.902-14.925-14.934-39.13-14.939-54.064-.012-14.933 14.926-14.939 39.132-.012 54.064 11.051 11.056 18.233 27.529 25.617 48.861 6.886 19.891 28.624 30.547 48.632 23.62z" fill="#f6b88e"/><path d="m449.483 384.631c17.828-11.311 23.111-34.932 11.8-52.76-17.663-27.841-43.599-50.833-71.158-63.082-19.295-8.573-41.886.114-50.461 19.407-8.576 19.294.113 41.886 19.407 50.462 13.926 6.19 28.001 18.965 37.651 34.174 11.29 17.795 34.903 23.13 52.761 11.799z" fill="#eba188"/><path d="m99.271 432.145c8.117-8.925 7.462-22.741-1.463-30.859-69.418-63.134-53.477-179.995-3.394-197.558 11.385-3.992 17.379-16.458 13.387-27.842-3.991-11.385-16.451-17.384-27.843-13.387-85.404 29.945-102.77 188.144-11.544 271.109 8.92 8.117 22.739 7.465 30.857-1.463z" fill="#f6b88e"/><path d="m94.413 203.729c-24.564 8.614-40.905 41.119-43 79.453-14.101-22.165-22.349-47.527-23.965-74.156 12.312-21.906 30.055-38.653 52.509-46.526 11.392-3.998 23.852 2.001 27.843 13.386 3.993 11.385-2.001 23.851-13.387 27.843z" fill="#eba188"/><path d="m372.946 342.484c66.422 0 120.269-49.141 120.269-109.76s-53.846-103.206-120.269-103.206c-113.224 0-89.076-56.832-189.158-56.832-69.944 0-126.644 56.701-126.644 126.644 0 34.972 14.175 66.633 37.093 89.551 71.577 71.578 229.32 53.603 278.709 53.603z" fill="#565e75"/><path d="m176.113 72.925c-66.368 3.969-118.968 59.041-118.968 126.406 0 34.972 14.175 66.633 37.093 89.551 40.728 40.728 109.351 52.457 170.04 55.005-126.005-61.456-144.38-212.382-88.165-270.962z" fill="#404656"/><g><g fill="#fff"><path d="m389.413 283.882c-2.093 0-4.175-.871-5.657-2.573-2.729-3.132-6.669-4.928-10.809-4.928-4.141 0-8.08 1.796-10.81 4.928-2.721 3.123-7.46 3.448-10.581.728-3.123-2.721-3.449-7.459-.728-10.581 5.578-6.402 13.641-10.074 22.118-10.074s16.54 3.672 22.118 10.074c2.722 3.122 2.396 7.86-.727 10.581-1.421 1.238-3.176 1.845-4.924 1.845z"/><path d="m454.882 210.163c-1.071-4-5.184-6.378-9.185-5.303l-24.066 6.448c-4.001 1.071-6.375 5.185-5.303 9.186 1.074 4.01 5.197 6.375 9.186 5.303l2.382-.638v8.839c0 4.143 3.357 7.5 7.5 7.5s7.5-3.357 7.5-7.5v-10.366c0-.835-.142-1.636-.394-2.387l7.078-1.896c4-1.072 6.374-5.185 5.302-9.186z"/><path d="m324.261 211.308-24.065-6.448c-4.002-1.075-8.114 1.303-9.186 5.303-1.072 4.001 1.302 8.114 5.303 9.186l7.079 1.897c-.252.751-.394 1.551-.394 2.387v10.366c0 4.143 3.357 7.5 7.5 7.5s7.5-3.357 7.5-7.5v-8.839l2.381.638c3.993 1.073 8.113-1.297 9.185-5.303 1.072-4.002-1.302-8.116-5.303-9.187z"/></g><path d="m372.946 242.028c-6.531 0-16.601-5.307-17.973-13.278-1.386-8.053 8.736-10.776 17.973-10.776 9.236 0 19.358 2.722 17.973 10.776-1.372 7.971-11.442 13.278-17.973 13.278z" fill="#eba188"/></g><path d="m231.4 99.232c14.236-14.236 37.317-14.236 51.553 0 22.031 22.031 25.35 48.431 11.114 62.667s-40.636 10.918-62.667-11.114c-14.236-14.236-14.236-37.317 0-51.553z" fill="#404656"/><path d="m228.996 101.886c29.882 10.284 48.589 39.368 57.191 65.568-14.866 7.088-36.353 1.764-54.787-16.67-13.382-13.382-14.181-34.578-2.404-48.898z" fill="#eba188"/><path d="m500.715 232.724c0-23.388-7.549-44.641-20.752-62.134 6.712-3.64 13.215-8.546 19.172-14.502 17.137-17.138 17.137-45.022 0-62.16-17.14-17.137-45.023-17.136-62.161 0-10.502 10.502-17.518 22.378-20.392 34.233-13.502-3.988-28.162-6.143-43.635-6.143-31.141 0-53.751-4.205-72.956-13.569-3.23-5.056-7.162-9.95-11.733-14.521-8.443-8.442-19.785-13.119-32.085-12.85-14.534-8.033-34.746-15.892-72.384-15.892-21.72 0-43.294 5.313-62.39 15.362-3.666 1.929-5.073 6.464-3.144 10.13 1.929 3.665 6.463 5.074 10.13 3.144 16.95-8.921 36.108-13.636 55.404-13.636 23.016 0 38.702 3.132 50.419 7.338-2.91 1.79-5.634 3.927-8.111 6.404-17.178 17.178-17.179 44.979 0 62.16 43.131 43.131 93.448 16.496 82.565-27.912 17.853 6.047 38.42 8.841 64.283 8.841 64.289 0 112.768 41.145 112.768 95.706 0 56.386-50.588 102.26-112.768 102.26-48.514 0-204.431 17.569-273.405-51.405-46.778-46.779-46.836-123.291 1.492-169.962 2.979-2.877 3.063-7.625.185-10.604-2.877-2.98-7.625-3.063-10.605-.185-18.763 18.12-31.531 40.66-37.36 65.354-33.485 24.309-49.785 67.421-52.728 108.74-4.401 61.798 19.091 122.446 62.841 162.234 11.994 10.912 30.542 10.036 41.454-1.966 10.913-11.997 10.034-30.541-1.966-41.453-28.11-25.565-38.409-57.193-42.098-79.225-3.413-20.379-2.594-40.991 2.104-58.982 8.681 18.001 21.501 34.236 38.191 47.404.545 4.447 1.728 8.773 3.553 12.901 10.994 24.872 15.878 33.102 19.877 45.978 7.462 24.015 33.101 37.602 57.238 30.102 20.634-6.411 33.488-26.184 32.04-46.867 6.323.894 12.66 1.643 18.976 2.263 8.872 10.076 15.127 24.829 21.644 43.659 8.265 23.87 34.39 36.49 58.173 28.253 23.826-8.248 36.501-34.345 28.254-58.172-1.496-4.321-2.91-8.25-4.294-11.929 9.508-.345 20.275-.802 27.886-1.005 9.807 6.387 19.196 16.022 25.991 26.73 3.554 5.602 8.16 10.264 13.693 13.855 3.496 2.267 8.132 1.247 10.375-2.207 2.255-3.475 1.267-8.119-2.207-10.375-3.712-2.409-6.805-5.541-9.195-9.31-4.536-7.149-9.943-13.774-15.898-19.556 22.933-2.34 44.053-10.269 61.7-22.27 2.138 2.922 4.184 5.895 6.093 8.904 10.365 16.337 3.197 38.289-15.099 45.222-3.874 1.468-5.824 5.798-4.356 9.671 1.469 3.875 5.799 5.823 9.671 4.357 27.205-10.308 37.929-42.89 22.45-67.284-2.151-3.389-4.458-6.737-6.867-10.024 24.599-21.386 39.967-51.628 39.967-85.105zm-264.011-87.243c-9.401-9.401-10.916-23.512-4.914-34.409 18.884 8.543 35.045 27.203 44.679 51.571-11.826 1.802-26.909-4.305-39.765-17.162zm53.059 10.039c-9.306-22.64-24.979-44.059-46.852-55.711 10.914-6.201 25.215-4.795 34.738 4.728 17.471 17.467 22.487 39.052 12.114 50.983zm141.057-22.298c1.96-9.593 7.861-19.788 16.76-28.686 9.405-9.404 23.718-10.965 34.762-4.703-15.314 8.232-28.745 21.82-38.926 39.471-4.034-2.226-8.238-4.256-12.596-6.082zm25.284 14.123c6.825-11.934 18.868-27.986 37.32-36.277 6.035 10.995 4.408 25.108-4.897 34.413-5.864 5.865-12.27 10.453-18.749 13.457-4.199-4.17-8.769-8.043-13.674-11.593zm-363.343 259.491c5.866 5.335 6.296 14.397.961 20.264-5.324 5.854-14.387 6.307-20.264.961-40.377-36.721-62.048-92.822-57.972-150.072 2.523-35.426 15.065-66.562 34.416-86.941-.933 15.505.744 30.449 4.678 44.548-21.282 48.409-13.03 124.663 38.181 171.24zm84.508-27.245c-16.183 5.028-33.436-4.048-38.463-20.228-3.981-12.815-8.247-20.416-17.501-40.919 22.976 12.96 49.609 21.105 77.039 26.117 2.857 15.121-6.036 30.358-21.075 35.03zm130.375 27.458c-16.012 5.537-33.548-2.976-39.09-18.986-5.041-14.562-10.039-26.975-16.262-37.214 22.868 1.383 45.436 1.394 68.348.78 1.925 4.897 3.87 10.202 5.991 16.328 5.542 16.012-2.975 33.548-18.987 39.092z"/></g></svg>